<?xml version="1.0" encoding="utf-8"?>
<!-- Generator: Adobe Illustrator 24.2.0, SVG Export Plug-In . SVG Version: 6.00 Build 0)  -->
<svg version="1.1" id="Capa_1" xmlns="http://www.w3.org/2000/svg" xmlns:xlink="http://www.w3.org/1999/xlink" x="0px" y="0px"
	 viewBox="0 0 200 200" style="enable-background:new 0 0 200 200;" xml:space="preserve">
<style type="text/css">
	.st0{fill:#FFCD00;}
	.st1{fill:#3C3C3B;stroke:#FFCD00;stroke-width:7;stroke-miterlimit:10;}
	.st2{fill:none;stroke:#FFCD00;stroke-width:7;stroke-miterlimit:10;}
	.st3{fill:#3C3C3B;}
	.st4{fill:none;stroke:#FFCD00;stroke-width:7;stroke-linecap:round;stroke-miterlimit:10;}
	.st5{fill:none;stroke:#3C3C3B;stroke-width:7;stroke-miterlimit:10;}
</style>
<g>
	<path class="st0" d="M100.4,199.3c-54.9,0-99.6-44.7-99.6-99.6S45.4,0,100.4,0S200,44.7,200,99.7S155.3,199.3,100.4,199.3z
		 M100.4,9.9c-49.5,0-89.8,40.3-89.8,89.8s40.3,89.8,89.8,89.8s89.8-40.3,89.8-89.8S149.8,9.9,100.4,9.9z"/>
</g>
<g>
	<path class="st0" d="M100.4,123.7c-4.5,0-8.8-1.3-12.5-3.8l-0.2-0.2L12,62.7c-2.2-1.6-2.6-4.7-1-6.9c1.6-2.2,4.7-2.6,6.9-1l75.5,57
		c4.1,2.7,9.7,2.7,13.8,0l75.5-57c2.2-1.6,5.3-1.2,6.9,1c1.6,2.2,1.2,5.3-1,6.9l-75.9,57.2C109.1,122.4,104.8,123.7,100.4,123.7z"/>
</g>
<g>
	<path class="st0" d="M20.2,155.1c-1.2,0-2.5-0.5-3.4-1.4c-2-1.9-2-5-0.1-7l49.1-50.4c1.9-2,5-2,7-0.1c2,1.9,2,5,0.1,7l-49.1,50.4
		C22.8,154.6,21.5,155.1,20.2,155.1z"/>
</g>
<g>
	<path class="st0" d="M179.1,155.1c-1.3,0-2.6-0.5-3.5-1.5l-47.3-48.7c-1.9-2-1.9-5.1,0.1-7c2-1.9,5.1-1.9,7,0.1l47.3,48.7
		c1.9,2,1.9,5.1-0.1,7C181.6,154.6,180.3,155.1,179.1,155.1z"/>
</g>
</svg>
