<?xml version="1.0" encoding="utf-8"?>
<!-- Generator: Adobe Illustrator 24.2.0, SVG Export Plug-In . SVG Version: 6.00 Build 0)  -->
<svg version="1.1" id="Capa_1" xmlns="http://www.w3.org/2000/svg" xmlns:xlink="http://www.w3.org/1999/xlink" x="0px" y="0px"
	 viewBox="0 0 738 233" style="enable-background:new 0 0 738 233;" xml:space="preserve">
<style type="text/css">
	.st0{fill:#3C3C3B;}
	.st1{fill:#FFCD00;}
</style>
<g>
	<path class="st0" d="M289.17,38.59c-5.48,0-10.17-1.68-14.07-5.05c-3.9-3.37-5.84-8.13-5.84-14.29c0-5.58,2-10.17,5.99-13.78
		c3.99-3.61,8.63-5.41,13.92-5.41c5.1,0,9.62,1.64,13.56,4.91c3.94,3.27,5.92,8.03,5.92,14.29c0,6.06-1.93,10.8-5.77,14.21
		C299.03,36.88,294.46,38.59,289.17,38.59z M308.65,79.28v113.85c0,7.89-1.88,13.85-5.63,17.89c-3.75,4.04-8.51,6.06-14.29,6.06
		c-5.77,0-10.46-2.07-14.07-6.21c-3.61-4.14-5.41-10.05-5.41-17.75V80.43c0-7.79,1.8-13.66,5.41-17.6c3.61-3.94,8.3-5.92,14.07-5.92
		c5.77,0,10.53,1.97,14.29,5.92C306.78,66.77,308.65,72.26,308.65,79.28z"/>
	<path class="st0" d="M336.73,60.38h4.33V36.71c0-6.35,0.17-11.33,0.5-14.93c0.34-3.61,1.27-6.71,2.81-9.31
		c1.54-2.69,3.75-4.88,6.64-6.57c2.89-1.68,6.11-2.53,9.67-2.53c5,0,9.52,1.88,13.56,5.63c2.69,2.5,4.4,5.56,5.12,9.16
		c0.72,3.61,1.08,8.73,1.08,15.37v26.84h14.43c5.58,0,9.84,1.32,12.77,3.97c2.93,2.65,4.4,6.04,4.4,10.17c0,5.29-2.09,9-6.28,11.11
		c-4.18,2.12-10.17,3.17-17.96,3.17h-7.36v72.44c0,6.16,0.22,10.89,0.65,14.21c0.43,3.32,1.59,6.01,3.46,8.08
		c1.88,2.07,4.93,3.1,9.16,3.1c2.31,0,5.43-0.41,9.38-1.23c3.94-0.82,7.02-1.23,9.24-1.23c3.17,0,6.04,1.28,8.58,3.82
		c2.55,2.55,3.82,5.7,3.82,9.45c0,6.35-3.46,11.21-10.39,14.57c-6.93,3.37-16.88,5.05-29.87,5.05c-12.32,0-21.65-2.07-27.99-6.21
		c-6.35-4.14-10.51-9.86-12.48-17.17c-1.97-7.31-2.96-17.07-2.96-29.29V88.8h-5.2c-5.68,0-10.01-1.35-12.99-4.04
		c-2.98-2.69-4.47-6.11-4.47-10.25c0-4.14,1.56-7.53,4.69-10.17C326.22,61.7,330.77,60.38,336.73,60.38z"/>
	<path class="st0" d="M634.54,78.7v4.76c6.93-9.14,14.5-15.85,22.73-20.13c8.23-4.28,17.68-6.42,28.35-6.42
		c10.39,0,19.67,2.26,27.85,6.78c8.18,4.52,14.29,10.92,18.33,19.19c2.6,4.81,4.28,10.01,5.05,15.58c0.77,5.58,1.15,12.7,1.15,21.36
		v73.3c0,7.89-1.8,13.85-5.41,17.89c-3.61,4.04-8.3,6.06-14.07,6.06c-5.87,0-10.63-2.07-14.29-6.21
		c-3.66-4.14-5.48-10.05-5.48-17.75v-65.66c0-12.99-1.8-22.92-5.41-29.8c-3.61-6.88-10.8-10.32-21.57-10.32
		c-7.02,0-13.42,2.09-19.19,6.28c-5.77,4.18-10.01,9.93-12.7,17.24c-1.93,5.87-2.89,16.83-2.89,32.9v49.35
		c0,7.99-1.85,13.97-5.56,17.96c-3.7,3.99-8.49,5.99-14.36,5.99c-5.68,0-10.34-2.07-14-6.21c-3.66-4.14-5.48-10.05-5.48-17.75V79.28
		c0-7.5,1.63-13.11,4.91-16.81c3.27-3.7,7.74-5.56,13.42-5.56c3.46,0,6.59,0.82,9.38,2.45c2.79,1.64,5.03,4.09,6.71,7.36
		C633.69,70,634.54,73.99,634.54,78.7z"/>
	<path class="st1" d="M259.87,6.84c-3.61-3.27-9.12-4.91-16.52-4.91H107.13c-7.02,0-12.39,1.59-16.09,4.76
		c-3.7,3.18-5.56,7.5-5.56,12.99c0,5.29,1.78,9.55,5.34,12.77c3.56,3.22,8.99,4.84,16.31,4.84h46.75v18.64
		c4.34,0.87,7.95,2.57,10.75,5.13c4.3,3.93,6.57,9.26,6.57,15.42c0,6.2-2.18,11.42-6.49,15.51c-2.91,2.76-6.55,4.57-10.83,5.44v9.2
		c1.92,0.88,3.64,1.99,5.12,3.34c4.3,3.93,6.57,9.26,6.57,15.42c0,6.2-2.18,11.42-6.49,15.51c-1.54,1.46-3.28,2.65-5.2,3.59v12.17
		c0.61,0.44,1.2,0.9,1.75,1.41c4.3,3.93,6.57,9.26,6.57,15.42c0,6.2-2.18,11.42-6.49,15.51c-0.58,0.55-1.19,1.06-1.83,1.53v0.45
		c0,8.75,2,15.3,5.99,19.63c3.99,4.33,9.16,6.49,15.51,6.49c6.25,0,11.35-2.14,15.3-6.42c3.94-4.28,5.92-10.84,5.92-19.7V37.29
		h46.75c7.31,0,12.79-1.61,16.45-4.84c3.65-3.22,5.48-7.48,5.48-12.77C265.28,14.39,263.47,10.11,259.87,6.84z"/>
	<path class="st1" d="M165.57,77.01c0-4.62-1.58-8.38-4.74-11.26c-3.16-2.89-7.86-4.33-14.09-4.33H19.38
		c-6.16,0-10.9,1.44-14.21,4.33C1.86,68.63,0.2,72.39,0.2,77.01c0,4.62,1.62,8.43,4.85,11.44c3.23,3,8.01,4.51,14.33,4.51h128.28
		c5.62,0,10.01-1.5,13.17-4.51C163.99,85.44,165.57,81.63,165.57,77.01z"/>
	<path class="st1" d="M159.94,125.11c0-4.62-1.58-8.38-4.74-11.26c-3.16-2.89-7.86-4.33-14.09-4.33H35.13
		c-6.16,0-10.9,1.44-14.21,4.33s-4.97,6.64-4.97,11.26c0,4.62,1.62,8.43,4.85,11.44c3.23,3,8.01,4.51,14.33,4.51h106.9
		c5.62,0,10.01-1.5,13.17-4.51C158.36,133.54,159.94,129.73,159.94,125.11z"/>
	<path class="st1" d="M157.69,174.33c0-4.62-1.58-8.38-4.74-11.26c-3.16-2.89-7.86-4.33-14.09-4.33H48.63
		c-6.16,0-10.9,1.44-14.21,4.33s-4.97,6.64-4.97,11.26c0,4.62,1.62,8.43,4.85,11.44c3.23,3,8.01,4.51,14.33,4.51h91.15
		c5.62,0,10.01-1.5,13.17-4.51C156.11,182.76,157.69,178.95,157.69,174.33z"/>
	<path class="st0" d="M573.57,185.56c-2.45-8.03-3.68-15.75-3.68-23.16c0.09-7.89,0.17-15.05,0.22-21.5
		c0.05-6.44,0.07-14.29,0.07-23.52c0-14.62-2.05-26.36-6.13-35.21c-4.09-8.85-11.09-15.32-21-19.41
		c-9.91-4.09-23.52-6.13-40.84-6.13c-15.49,0-28.43,2.12-38.82,6.35c-10.39,4.23-18.04,9.62-22.94,16.16
		c-4.91,6.54-7.36,13.28-7.36,20.2c0,4.43,1.61,8.06,4.83,10.9c3.22,2.84,7.05,4.26,11.47,4.26c4.91,0,8.1-0.89,9.6-2.67
		c1.49-1.78,4.04-5.46,7.65-11.04c3.61-5.58,7.94-9.76,12.99-12.55c5.05-2.79,12.58-4.18,22.58-4.18c11.64,0,19.31,2.43,23.02,7.29
		c3.7,4.86,5.79,12.48,6.28,22.87c-8.27,2.41-15.94,4.45-23.02,6.13c-7.07,1.68-15.56,3.54-25.47,5.55
		c-9.91,2.02-16.11,3.32-18.62,3.9c-11.93,2.6-21.31,7.7-28.14,15.3c-6.83,7.6-10.24,16.79-10.24,27.56c0,7.99,2.07,15.39,6.2,22.22
		c4.14,6.83,10.03,12.24,17.68,16.23c7.65,3.99,16.52,5.99,26.62,5.99c11.06,0,21.04-1.85,29.94-5.56
		c8.9-3.7,18.11-9.26,27.63-16.67c4.42,7.22,8.61,12.72,12.55,16.52c3.94,3.8,7.94,5.7,11.98,5.7c4.81,0,9.11-1.66,12.91-4.98
		c3.8-3.32,5.7-7,5.7-11.04C577.25,198.76,576.02,193.59,573.57,185.56z M531.51,143.49c0,13.66-1.78,23.47-5.34,29.44
		c-3.08,5.39-7.91,9.79-14.5,13.2c-6.59,3.42-13.78,5.12-21.57,5.12c-7.31,0-13.23-2.09-17.75-6.28c-4.52-4.18-6.78-9.26-6.78-15.22
		c0-5.77,1.92-10.27,5.77-13.49c3.85-3.22,7.89-5.39,12.12-6.49c4.23-1.11,11.85-2.84,22.87-5.2c11.01-2.36,19.41-4.59,25.18-6.71
		V143.49z"/>
	<circle class="st0" cx="127.72" cy="217.09" r="16.36"/>
	<circle class="st0" cx="57.59" cy="217.09" r="16.36"/>
</g>
<circle class="st1" cx="442.94" cy="26.69" r="9.28"/>
<circle class="st1" cx="525.11" cy="26.69" r="9.28"/>
<circle class="st1" cx="468.2" cy="14.12" r="9.28"/>
<circle class="st1" cx="498.3" cy="14.12" r="9.28"/>
</svg>
